<?xml version="1.0" encoding="iso-8859-1"?>
<!-- Generator: Adobe Illustrator 16.0.0, SVG Export Plug-In . SVG Version: 6.00 Build 0)  -->
<!DOCTYPE svg PUBLIC "-//W3C//DTD SVG 1.1//EN" "http://www.w3.org/Graphics/SVG/1.1/DTD/svg11.dtd">
<svg version="1.1" id="Capa_1" xmlns="http://www.w3.org/2000/svg" xmlns:xlink="http://www.w3.org/1999/xlink" x="0px" y="0px"
	 width="94px" height="94px" viewBox="0 0 94 94" style="enable-background:new 0 0 94 94;" xml:space="preserve">
<g>
	<path d="M89,0H5C2.239,0,0,2.239,0,5v84c0,2.761,2.239,5,5,5h84c2.762,0,5-2.239,5-5V5C94,2.239,91.762,0,89,0z M68.289,59.614
		c-0.318,5.588-2.129,10.646-5.475,15.144c-1.687,2.262-3.612,4.287-5.888,5.971c-2.918,2.158-6.159,3.573-9.706,4.319
		c-2.624,0.554-5.279,0.704-7.948,0.571c-2.876-0.143-5.684-0.68-8.383-1.711c-2.897-1.106-5.498-2.707-7.779-4.805
		c-3.085-2.838-5.518-6.149-7.188-10.006c-1.03-2.386-1.684-4.873-2.012-7.451c-0.23-1.83-0.292-3.664-0.193-5.5
		c0.34-6.381,2.553-12.024,6.701-16.898c1.869-2.196,3.987-4.111,6.438-5.646c2.573-1.611,5.354-2.71,8.332-3.302
		c2.486-0.494,4.994-0.665,7.526-0.52c2.369,0.134,4.688,0.53,6.944,1.255c0.265,0.084,0.55,0.131,0.81,0.337
		c-0.477,1.022-0.938,2.052-1.283,3.126c-0.34,1.074-0.57,2.175-0.713,3.337c-0.215-0.066-0.367-0.103-0.513-0.16
		c-1.666-0.646-3.397-1.032-5.175-1.17c-1.388-0.11-2.78-0.103-4.171,0.061c-1.569,0.186-3.095,0.539-4.574,1.098
		c-2.294,0.867-4.326,2.153-6.148,3.787c-2.359,2.115-4.248,4.58-5.54,7.484c-0.866,1.949-1.403,3.988-1.657,6.106
		c-0.208,1.731-0.247,3.463-0.074,5.196c0.293,2.945,1.142,5.728,2.557,8.33c1.325,2.441,3.024,4.576,5.217,6.297
		c2.536,1.988,5.388,3.294,8.556,3.914c0.275,0.055,0.511,0.022,0.757-0.079c2.32-0.962,4.369-2.339,6.171-4.085
		c1.961-1.898,3.518-4.098,4.814-6.49c1.457-2.689,2.535-5.533,3.396-8.462c0.698-2.384,1.234-4.806,1.651-7.252
		c0.333-1.949,0.584-3.909,0.784-5.877c0.438-4.263,0.552-8.538,0.463-12.818c-0.014-0.731-0.062-1.576-0.092-2.4
		c-0.06-0.441-0.08-0.602-0.098-0.694l-0.178-0.327c-0.602-1.561-1.178-3.132-1.809-4.68c-2.297-5.649-4.985-11.107-8.049-16.381
		c-0.131-0.226-0.268-0.451-0.391-0.682c-0.024-0.041,0-0.108,0.008-0.218c0.208,0.167,0.383,0.3,0.549,0.443
		c1.764,1.508,3.209,3.289,4.461,5.231c1.819,2.817,3.118,5.867,4.031,9.088c0.676,2.372,1.121,4.787,1.379,7.238
		c0.004,0.03,0.01,0.176,0.01,0.258c0.015,0.086,0.035,0.229,0.097,0.695c0.069,0.125,0.169,0.337,0.202,0.424
		c1.054,2.824,1.871,5.713,2.39,8.68c0.459,2.609,0.692,5.241,0.635,7.892c-0.124,5.427-1.347,10.592-3.753,15.459
		c-2.895,5.857-6.988,10.726-12.189,14.673c-0.256,0.196-0.518,0.386-0.775,0.58c-0.01,0.007-0.008,0.034-0.029,0.147
		c0.501-0.021,0.963-0.016,1.424-0.057c4.973-0.453,9.262-2.391,12.747-5.992c2.387-2.467,4.004-5.398,5.008-8.673
		c0.668-2.178,0.961-4.415,0.936-6.687c-0.033-2.728-0.479-5.381-1.488-7.926c-0.037-0.094-0.07-0.19-0.1-0.287
		c-0.014-0.037-0.007-0.08-0.014-0.144c0.723-0.214,1.459-0.403,2.177-0.653c0.704-0.244,1.396-0.524,2.073-0.836
		c0.693-0.318,1.363-0.695,2.07-1.06c0.062,0.125,0.131,0.245,0.18,0.372c0.727,1.805,1.217,3.674,1.537,5.59
		C68.311,55.055,68.417,57.332,68.289,59.614z M80.277,25.276c-0.139,2.223-0.562,4.398-1.285,6.509
		c-0.35,1.016-0.852,1.961-1.393,2.885c-0.933,1.594-2.037,3.053-3.445,4.266c-1.451,1.251-3.104,2.091-5.002,2.421
		c-1.563,0.273-3.092,0.137-4.594-0.357c-1.597-0.526-2.992-1.394-4.271-2.468c-0.337-0.284-0.659-0.588-0.998-0.892
		c0.139-0.232,0.357-0.301,0.54-0.407c2.5-1.45,4.907-3.035,7.206-4.786c1.896-1.445,3.701-2.994,5.293-4.78
		c0.915-1.029,1.734-2.125,2.346-3.366c0.275-0.564,0.493-1.149,0.628-1.763c0.024-0.109,0.019-0.225,0.032-0.462
		c-4.062,7.081-9.941,11.557-17.768,13.475c-0.096-0.13-0.164-0.203-0.211-0.288c-0.961-1.741-1.528-3.6-1.617-5.589
		c-0.107-2.434,0.613-4.61,2.104-6.54c0.799-1.038,1.771-1.87,2.902-2.527c1.648-0.958,3.412-1.637,5.236-2.171
		c0.213-0.063,0.428-0.122,0.643-0.174c2.475-0.605,4.572-1.878,6.393-3.635c1.2-1.159,2.172-2.49,2.951-3.965
		c0.119-0.226,0.248-0.449,0.402-0.731c0.206,0.329,0.383,0.596,0.544,0.874c1.13,1.949,1.95,4.024,2.537,6.195
		C80.18,19.712,80.45,22.476,80.277,25.276z"/>
</g>
<g>
</g>
<g>
</g>
<g>
</g>
<g>
</g>
<g>
</g>
<g>
</g>
<g>
</g>
<g>
</g>
<g>
</g>
<g>
</g>
<g>
</g>
<g>
</g>
<g>
</g>
<g>
</g>
<g>
</g>
</svg>
